<?xml version="1.0" encoding="UTF-8"?>
<svg width="86px" height="73px" viewBox="0 0 86 73" version="1.1" xmlns="http://www.w3.org/2000/svg" xmlns:xlink="http://www.w3.org/1999/xlink">
    <!-- Generator: Sketch 41.1 (35376) - http://www.bohemiancoding.com/sketch -->
    <title>Mask</title>
    <desc>Created with Sketch.</desc>
    <defs>
        <linearGradient x1="50%" y1="0%" x2="50%" y2="102.57232%" id="linearGradient-1">
            <stop stop-color="#1584FF" offset="0%"></stop>
            <stop stop-color="#65FFE4" offset="98.5869739%"></stop>
        </linearGradient>
        <path d="M50,29.8457315 C50,25.9795082 53.1377906,22.845315 56.9954686,22.845315 L70.0818597,22.845315 L77.3043521,17 L88.1964015,25.659123 L97.8518431,21.3156006 L88.1964015,31.2214484 L77.3043521,22.9953891 L70.0818597,29.4000126 L64.9966253,29.2852912 C62.2370653,29.2230363 60,31.4067691 60,34.1647061 L60,57.6452102 C60,57.6452102 60.7927459,59.5992732 63,60.8088371 C66.0231355,61.9044266 70,62.3906505 70,62.3906505 L40,62.3906505 C40,62.3906505 44.4881329,61.8534337 47,60.8088371 C49.3354159,59.6502661 50,57.6452102 50,57.6452102 L50,29.8457315 Z M31,67.3906505 L36,67.3906505 L36,94.3906505 L31,94.3906505 L31,67.3906505 Z M33,102.39065 L40,94.3906505 L26,94.3906505 L33,102.39065 Z M53,67.3906505 L58,67.3906505 L58,88.3906505 L53,88.3906505 L53,67.3906505 Z M56,96.3906505 L63,88.3906505 L49,88.3906505 L56,96.3906505 Z M76,67.3906505 L81,67.3906505 L81,94.3906505 L76,94.3906505 L76,67.3906505 Z M78,102.39065 L85,94.3906505 L71,94.3906505 L78,102.39065 Z M31,64.8906505 C31,63.5099386 32.1096621,62.3906505 33.5,62.3906505 L36,62.3906505 L78.5003659,62.3906505 C79.8808757,62.3906505 81,63.5003125 81,64.8906505 L81,67.3906505 L31,67.3906505 L31,64.8906505 Z" id="path-2"></path>
    </defs>
    <g id="Page-1" stroke="none" stroke-width="1" fill="none" fill-rule="evenodd">
        <g id="GeeRouter" transform="translate(-19.000000, -23.000000)">
            <mask id="mask-3" fill="white">
                <use xlink:href="#path-2"></use>
            </mask>
            <use id="Mask" fill="url(#linearGradient-1)" transform="translate(61.925922, 59.695325) rotate(-90.000000) translate(-61.925922, -59.695325) " xlink:href="#path-2"></use>
        </g>
    </g>
</svg>